<svg width="73" height="73" viewBox="0 0 73 73" fill="none" xmlns="http://www.w3.org/2000/svg">
<path d="M59.6273 23.5285L38.252 44.5662C37.7856 45.0276 37.156 45.2864 36.5 45.2864C35.8439 45.2864 35.2144 45.0276 34.748 44.5662L13.3727 23.533C12.9034 23.0719 12.2718 22.8135 11.6138 22.8135C10.9559 22.8135 10.3243 23.0719 9.85498 23.533C9.62389 23.7583 9.44024 24.0276 9.31485 24.3249C9.18945 24.6223 9.12485 24.9418 9.12485 25.2645C9.12485 25.5872 9.18945 25.9067 9.31485 26.2041C9.44024 26.5014 9.62389 26.7707 9.85497 26.996L31.2257 48.0291C32.6334 49.4112 34.5273 50.1855 36.5 50.1855C38.4727 50.1855 40.3666 49.4112 41.7742 48.0291L63.145 26.996C63.3768 26.7706 63.561 26.5011 63.6868 26.2033C63.8126 25.9055 63.8774 25.5855 63.8774 25.2622C63.8774 24.9389 63.8126 24.619 63.6868 24.3212C63.561 24.0234 63.3768 23.7538 63.145 23.5285C62.6757 23.0673 62.0441 22.8089 61.3861 22.8089C60.7282 22.8089 60.0966 23.0673 59.6273 23.5285Z" fill="white"/>
</svg>
