<svg width="73" height="73" viewBox="0 0 73 73" fill="none" xmlns="http://www.w3.org/2000/svg">
<path d="M49.4712 59.6273L28.4335 38.252C27.9721 37.7856 27.7133 37.156 27.7133 36.5C27.7133 35.8439 27.9721 35.2144 28.4335 34.748L49.4666 13.3727C49.9278 12.9034 50.1862 12.2718 50.1862 11.6138C50.1862 10.9559 49.9278 10.3243 49.4666 9.85497C49.2413 9.62389 48.9721 9.44024 48.6747 9.31484C48.3773 9.18945 48.0579 9.12485 47.7352 9.12485C47.4124 9.12485 47.093 9.18945 46.7956 9.31484C46.4982 9.44024 46.229 9.62389 46.0037 9.85497L24.9706 31.2257C23.5885 32.6334 22.8141 34.5273 22.8141 36.5C22.8141 38.4727 23.5885 40.3666 24.9706 41.7742L46.0037 63.145C46.229 63.3768 46.4986 63.561 46.7964 63.6868C47.0942 63.8126 47.4142 63.8774 47.7374 63.8774C48.0607 63.8774 48.3807 63.8126 48.6785 63.6868C48.9763 63.561 49.2458 63.3768 49.4712 63.145C49.9323 62.6757 50.1907 62.0441 50.1907 61.3861C50.1907 60.7282 49.9323 60.0966 49.4712 59.6273Z" fill="white"/>
</svg>
