<svg width="30" height="30" viewBox="0 0 30 30" fill="none" xmlns="http://www.w3.org/2000/svg">
<path d="M5 3.75L7.5 8.75H11.25L8.75 3.75H11.25L13.75 8.75H17.5L15 3.75H17.5L20 8.75H23.75L21.25 3.75H25C25.6875 3.75 26.2763 3.995 26.7663 4.485C27.2563 4.975 27.5008 5.56333 27.5 6.25V23.75C27.5 24.4375 27.2554 25.0263 26.7663 25.5163C26.2771 26.0063 25.6883 26.2508 25 26.25H5C4.3125 26.25 3.72417 26.0054 3.235 25.5163C2.74583 25.0271 2.50083 24.4383 2.5 23.75V6.25C2.5 5.5625 2.745 4.97417 3.235 4.485C3.725 3.99583 4.31333 3.75083 5 3.75ZM10 22.5H20V21.8125C20 20.8958 19.5417 20.1562 18.625 19.5938C17.7083 19.0312 16.5 18.75 15 18.75C13.5 18.75 12.2917 19.0312 11.375 19.5938C10.4583 20.1562 10 20.8958 10 21.8125V22.5ZM15 17.5C15.6875 17.5 16.2762 17.2554 16.7663 16.7663C17.2563 16.2771 17.5008 15.6883 17.5 15C17.4992 14.3117 17.2546 13.7233 16.7663 13.235C16.2779 12.7467 15.6892 12.5017 15 12.5C14.3108 12.4983 13.7225 12.7433 13.235 13.235C12.7475 13.7267 12.5025 14.315 12.5 15C12.4975 15.685 12.7425 16.2738 13.235 16.7663C13.7275 17.2587 14.3158 17.5033 15 17.5Z" fill="white"/>
</svg>
