<svg width="56" height="56" viewBox="0 0 56 56" fill="none" xmlns="http://www.w3.org/2000/svg">
<path d="M7.71498 49.5741H48.285C53.184 49.5741 55.645 47.137 55.645 42.309V13.69C55.645 8.86205 53.184 6.42505 48.285 6.42505H7.71498C2.83998 6.42605 0.35498 8.84005 0.35498 13.69V42.3101C0.35498 47.161 2.83998 49.5741 7.71498 49.5741ZM17.933 28.5751C14.746 28.5751 12.144 25.974 12.144 22.786C12.144 19.622 14.746 16.997 17.934 16.997C21.098 16.997 23.699 19.622 23.699 22.787C23.699 25.974 21.098 28.5751 17.933 28.5751ZM7.76198 45.801C5.51198 45.801 4.12898 44.4411 4.12898 42.1441V40.7141L11.324 34.434C12.355 33.52 13.48 33.051 14.535 33.051C15.66 33.051 16.855 33.52 17.887 34.481L22.387 38.5111L33.567 28.574C34.738 27.543 36.027 27.074 37.34 27.074C38.629 27.074 39.965 27.566 41.09 28.598L51.87 38.5821V42.1921C51.87 44.4421 50.465 45.801 48.238 45.801H7.76198Z" fill="#393939"/>
</svg>
