<svg width="25" height="25" viewBox="0 0 25 25" fill="none" xmlns="http://www.w3.org/2000/svg">
<path d="M18.75 1.45508C15.625 1.45508 14.0527 2.80273 12.5 4.58008C10.9473 2.80273 9.375 1.45508 6.25 1.45508C3.125 1.45508 0 3.54004 0 9.79004C0 12.915 3.125 19.165 12.5 24.375C21.875 19.165 25 12.915 25 9.79004C25 3.54004 21.875 1.45508 18.75 1.45508ZM12.5 21.9727C3.98926 16.9238 2.08496 11.5088 2.08496 9.79004C2.08496 6.93848 2.80762 3.54004 6.25 3.54004C8.4375 3.54004 9.50195 4.31641 10.9326 5.95215L12.5 7.70508L14.0674 5.95215C15.498 4.31641 16.5625 3.54004 18.75 3.54004C22.1924 3.54004 22.915 6.93848 22.915 9.79004C22.915 11.5088 21.0107 16.9238 12.5 21.9727Z" fill="white"/>
</svg>
