<svg width="35" height="35" viewBox="0 0 35 35" fill="none" xmlns="http://www.w3.org/2000/svg">
<path d="M4.37585 14.5832C4.02585 14.5832 3.7196 14.7144 3.51543 14.9478C3.31126 15.1665 3.22376 15.4873 3.26751 15.8373L3.99668 20.1978C4.11335 21.1457 4.95918 21.8748 5.83418 21.8748H10.2092C11.1425 21.8748 12.1925 21.0582 12.3967 20.154L13.9425 15.5019C14.0008 15.3123 13.9571 15.0353 13.855 14.8603C13.6946 14.6853 13.4467 14.5832 13.1258 14.5832H4.37585ZM10.2092 24.7915H5.83418C3.47168 24.7915 1.40085 22.954 1.10918 20.6207L0.380015 16.2603C0.219598 15.0207 0.569599 13.854 1.32793 13.0082C2.08627 12.1623 3.1946 11.6665 4.37585 11.6665H13.1258C14.3363 11.6665 15.43 12.1769 16.13 13.0665C16.2904 13.2853 16.4363 13.5186 16.5529 13.7811C17.18 13.6498 17.8217 13.6498 18.4342 13.7811C18.5508 13.5186 18.6967 13.2853 18.8717 13.0665C19.5571 12.1769 20.6508 11.6665 21.8758 11.6665H30.6258C31.8071 11.6665 32.9154 12.1623 33.6738 13.0082C34.4175 13.854 34.7675 15.0207 34.6217 16.2019L33.8779 20.679C33.6008 22.954 31.5154 24.7915 29.1675 24.7915H24.7925C22.5175 24.7915 20.3008 23.0561 19.7467 20.854L18.4342 16.9019C17.88 16.4936 17.1071 16.4936 16.5529 16.9019L15.2113 20.9561C14.6863 23.0707 12.4842 24.7915 10.2092 24.7915ZM21.8758 14.5832C21.555 14.5832 21.3071 14.6853 21.1467 14.8603C21.03 15.0353 21.0008 15.3123 21.0738 15.604L22.5467 20.0519C22.8092 21.0582 23.8592 21.8748 24.7925 21.8748H29.1675C30.0279 21.8748 30.8883 21.1457 30.9904 20.2561L31.7342 15.779C31.7779 15.4873 31.6904 15.1665 31.4863 14.9478C31.3774 14.8288 31.2443 14.7346 31.0958 14.6717C30.9473 14.6088 30.787 14.5786 30.6258 14.5832H21.8758Z" fill="white"/>
</svg>
