<svg width="27" height="27" viewBox="0 0 27 27" fill="none" xmlns="http://www.w3.org/2000/svg">
<path fill-rule="evenodd" clip-rule="evenodd" d="M14.1676 26.1653L14.1552 26.1675L14.0753 26.2069L14.0528 26.2114L14.0371 26.2069L13.9572 26.1675C13.9459 26.163 13.9358 26.1664 13.9302 26.1732L13.9257 26.1844L13.9066 26.6659L13.9122 26.6884L13.9234 26.703L14.0404 26.7863L14.0573 26.7908L14.0708 26.7863L14.1878 26.703L14.2013 26.685L14.2058 26.6659L14.1867 26.1855C14.1844 26.1743 14.1766 26.1664 14.1676 26.1653ZM14.4657 26.0382L14.4511 26.0404L14.2429 26.145L14.2317 26.1563L14.2283 26.1687L14.2486 26.6524L14.2542 26.6659L14.2632 26.6738L14.4893 26.7784C14.5028 26.7829 14.5152 26.7784 14.5219 26.7694L14.5264 26.7537L14.4882 26.0629C14.4848 26.0494 14.4769 26.0404 14.4657 26.0382ZM13.6613 26.0404C13.6562 26.0381 13.6505 26.0375 13.645 26.0387C13.6395 26.0399 13.6346 26.0429 13.6309 26.0472L13.6242 26.0629L13.5859 26.7537C13.5859 26.7672 13.5938 26.7762 13.6051 26.7807L13.6219 26.7784L13.8481 26.6738L13.8593 26.6648L13.8638 26.6524L13.8829 26.1687L13.8796 26.1552L13.8683 26.1439L13.6613 26.0404Z" fill="#E34646"/>
<path fill-rule="evenodd" clip-rule="evenodd" d="M12.9375 3.375C14.0434 3.37509 15.1189 3.73714 15.9997 4.40588C16.8805 5.07462 17.5183 6.01328 17.8155 7.0785L17.874 7.30913L19.9777 6.78375C20.1315 6.74548 20.2916 6.74012 20.4476 6.76803C20.6036 6.79593 20.7519 6.85648 20.8829 6.9457C21.0138 7.03491 21.1245 7.15079 21.2075 7.28573C21.2906 7.42068 21.3442 7.57164 21.3649 7.72875L21.375 7.875V9.91125C22.0092 10.5193 22.529 11.2365 22.9095 12.0285L23.0648 12.375H23.625C23.9006 12.375 24.1665 12.4762 24.3724 12.6593C24.5783 12.8424 24.7099 13.0947 24.7421 13.3684L24.75 13.5V16.875C24.75 17.0602 24.7043 17.2425 24.617 17.4058C24.5297 17.569 24.4034 17.7082 24.2494 17.811L24.1279 17.8807L22.8139 18.5389C22.2759 19.5796 21.4967 20.4765 20.5414 21.1545L20.25 21.3503V22.5C20.25 22.7756 20.1488 23.0415 19.9657 23.2474C19.7826 23.4533 19.5303 23.5849 19.2566 23.6171L19.125 23.625H15.75C15.4745 23.625 15.2085 23.5238 15.0026 23.3407C14.7967 23.1576 14.6651 22.9053 14.6329 22.6316L14.625 22.5H13.5C13.5 22.7756 13.3988 23.0415 13.2157 23.2474C13.0326 23.4533 12.7803 23.5849 12.5066 23.6171L12.375 23.625H9C8.72445 23.625 8.4585 23.5238 8.25258 23.3407C8.04667 23.1576 7.91511 22.9053 7.88287 22.6316L7.875 22.5V21.3503C7.06228 20.8307 6.36025 20.1556 5.80924 19.3638C5.25823 18.5721 4.86912 17.6792 4.66425 16.7366C4.00087 16.5392 3.41417 16.1427 2.98356 15.6008C2.55295 15.0589 2.29924 14.3978 2.25675 13.707L2.25 13.5V12.9375C2.25032 12.6508 2.36011 12.375 2.55695 12.1665C2.75379 11.958 3.02282 11.8325 3.30907 11.8157C3.59532 11.7989 3.87718 11.892 4.09706 12.076C4.31695 12.2601 4.45826 12.5211 4.49213 12.8059L4.5 12.9375V13.5C4.5 13.6665 4.536 13.8251 4.60125 13.9669C4.77296 12.9541 5.15602 11.9887 5.72549 11.1338C6.29497 10.2788 7.03809 9.55328 7.9065 9.0045C7.82668 8.29629 7.89729 7.57922 8.11371 6.90018C8.33013 6.22115 8.68748 5.59546 9.16239 5.06406C9.6373 4.53265 10.2191 4.10751 10.8696 3.81645C11.5201 3.52538 12.2248 3.37495 12.9375 3.375ZM18 12.375C17.7016 12.375 17.4155 12.4935 17.2045 12.7045C16.9935 12.9155 16.875 13.2016 16.875 13.5C16.875 13.7984 16.9935 14.0845 17.2045 14.2955C17.4155 14.5065 17.7016 14.625 18 14.625C18.2984 14.625 18.5845 14.5065 18.7955 14.2955C19.0065 14.0845 19.125 13.7984 19.125 13.5C19.125 13.2016 19.0065 12.9155 18.7955 12.7045C18.5845 12.4935 18.2984 12.375 18 12.375ZM12.9375 5.625C12.2561 5.625 11.5978 5.87239 11.0851 6.3212C10.5723 6.77 10.24 7.3897 10.1498 8.06512C10.6949 7.93852 11.2528 7.87473 11.8125 7.875H15.6116L15.6904 7.85588C15.557 7.2247 15.2106 6.65858 14.7094 6.25241C14.2082 5.84625 13.5826 5.62473 12.9375 5.625Z" fill="#E34646"/>
</svg>
