<svg width="28" height="28" viewBox="0 0 28 28" fill="none" xmlns="http://www.w3.org/2000/svg">
<path d="M13.3 21.1877L21.9287 12.559C20.4769 11.9529 19.1585 11.0673 18.0483 9.95267C16.9332 8.84225 16.0472 7.52341 15.4408 6.07117L6.81216 14.6998C6.139 15.373 5.80183 15.7102 5.5125 16.0812C5.17079 16.519 4.87778 16.9927 4.63866 17.494C4.43683 17.9187 4.28633 18.3713 3.98533 19.2743L2.39633 24.0378C2.3232 24.2559 2.31235 24.4901 2.365 24.7141C2.41765 24.938 2.53172 25.1428 2.69438 25.3055C2.85704 25.4681 3.06185 25.5822 3.28578 25.6348C3.50971 25.6875 3.74389 25.6766 3.962 25.6035L8.7255 24.0145C9.62966 23.7135 10.0812 23.563 10.5058 23.3612C11.0075 23.122 11.4812 22.8292 11.9187 22.4873C12.2897 22.198 12.6268 21.8608 13.3 21.1877ZM24.3227 10.165C25.183 9.30466 25.6663 8.13779 25.6663 6.92109C25.6663 5.70438 25.183 4.53751 24.3227 3.67717C23.4623 2.81683 22.2955 2.3335 21.0787 2.3335C19.862 2.3335 18.6952 2.81683 17.8348 3.67717L16.8 4.712L16.8443 4.8415C17.3543 6.30067 18.1888 7.62506 19.285 8.71484C20.4074 9.84382 21.7781 10.6948 23.2878 11.1998L24.3227 10.165Z" fill="white"/>
</svg>
