<svg width="31" height="31" viewBox="0 0 31 31" fill="none" xmlns="http://www.w3.org/2000/svg">
<path d="M15.5003 15.4998C14.0795 15.4998 12.8632 14.9939 11.8514 13.9821C10.8396 12.9703 10.3337 11.754 10.3337 10.3332C10.3337 8.91234 10.8396 7.69602 11.8514 6.68421C12.8632 5.67241 14.0795 5.1665 15.5003 5.1665C16.9212 5.1665 18.1375 5.67241 19.1493 6.68421C20.1611 7.69602 20.667 8.91234 20.667 10.3332C20.667 11.754 20.1611 12.9703 19.1493 13.9821C18.1375 14.9939 16.9212 15.4998 15.5003 15.4998ZM5.16699 25.8332V22.2165C5.16699 21.4846 5.35558 20.812 5.73274 20.1989C6.10991 19.5858 6.61021 19.1174 7.23366 18.7936C8.56838 18.1262 9.92463 17.6259 11.3024 17.2927C12.6802 16.9594 14.0795 16.7924 15.5003 16.7915C16.9212 16.7906 18.3205 16.9577 19.6982 17.2927C21.076 17.6276 22.4323 18.1279 23.767 18.7936C24.3913 19.1165 24.892 19.5849 25.2692 20.1989C25.6464 20.8129 25.8345 21.4854 25.8337 22.2165V25.8332H5.16699Z" fill="#0291D5"/>
</svg>
