<svg width="20" height="19" viewBox="0 0 20 19" fill="none" xmlns="http://www.w3.org/2000/svg">
<g clip-path="url(#clip0_938_330)">
<path fill-rule="evenodd" clip-rule="evenodd" d="M2.5 4.75C2.5 4.12011 2.76339 3.51602 3.23223 3.07062C3.70107 2.62522 4.33696 2.375 5 2.375H12.5C13.9475 2.375 15.2508 2.95925 16.1642 3.89262C16.4303 3.72527 16.7007 3.56398 16.975 3.40892C17.1673 3.3053 17.395 3.27849 17.6081 3.33439C17.8212 3.39029 18.0022 3.52431 18.1112 3.70698C18.2203 3.88965 18.2485 4.106 18.1897 4.30843C18.1309 4.51086 17.9898 4.6828 17.7975 4.78642C17.71 4.83392 17.0675 5.22421 17.08 5.21629C17.3579 5.81795 17.5009 6.46797 17.5 7.125V14.25C17.5 14.8799 17.2366 15.484 16.7678 15.9294C16.2989 16.3748 15.663 16.625 15 16.625H5C4.33696 16.625 3.70107 16.3748 3.23223 15.9294C2.76339 15.484 2.5 14.8799 2.5 14.25V4.75ZM16.38 5.67942C16.1746 5.18248 15.8657 4.73009 15.4717 4.34942C14.9898 4.6796 14.5201 5.0255 14.0633 5.3865C12.695 6.46792 11.0517 7.99108 9.6975 9.91325C9.27751 9.38552 8.78859 8.91068 8.2425 8.50013C7.98983 8.3111 7.72082 8.14266 7.43833 7.99662C7.31748 7.9326 7.19187 7.87703 7.0625 7.83038C6.85497 7.75804 6.62569 7.76699 6.4251 7.85526C6.22452 7.94352 6.06906 8.10387 5.99292 8.30102C5.91678 8.49818 5.9262 8.71599 6.01911 8.90655C6.11202 9.0971 6.2808 9.24479 6.48833 9.31713C6.50917 9.32504 6.79667 9.43746 7.21833 9.74937C7.7 10.1056 8.365 10.7303 9.00667 11.7737C9.08048 11.8938 9.18631 11.9933 9.3135 12.0622C9.44069 12.1311 9.58474 12.167 9.73116 12.1662C9.87757 12.1654 10.0212 12.128 10.1475 12.0577C10.2739 11.9874 10.3785 11.8867 10.4508 11.7658C11.7708 9.55542 13.6067 7.80742 15.1292 6.60408C15.5354 6.28296 15.9525 5.97457 16.38 5.67942Z" fill="#E34646"/>
</g>
<defs>
<clipPath id="clip0_938_330">
<rect width="20" height="19" fill="white"/>
</clipPath>
</defs>
</svg>
