<svg width="23" height="23" viewBox="0 0 23 23" fill="none" xmlns="http://www.w3.org/2000/svg">
<path d="M17.9688 4.3125H12.2188V1.4375C12.2188 1.24688 12.143 1.06406 12.0082 0.929267C11.8734 0.794475 11.6906 0.71875 11.5 0.71875C11.3094 0.71875 11.1266 0.794475 10.9918 0.929267C10.857 1.06406 10.7812 1.24688 10.7812 1.4375V4.3125H5.03125C4.26875 4.3125 3.53748 4.6154 2.99832 5.15457C2.45915 5.69374 2.15625 6.425 2.15625 7.1875V17.25C2.15625 18.0125 2.45915 18.7438 2.99832 19.2829C3.53748 19.8221 4.26875 20.125 5.03125 20.125H17.9688C18.7312 20.125 19.4625 19.8221 20.0017 19.2829C20.5408 18.7438 20.8438 18.0125 20.8438 17.25V7.1875C20.8438 6.425 20.5408 5.69374 20.0017 5.15457C19.4625 4.6154 18.7312 4.3125 17.9688 4.3125ZM15.4531 8.625C15.6664 8.625 15.8748 8.68823 16.0521 8.8067C16.2294 8.92516 16.3676 9.09354 16.4492 9.29054C16.5308 9.48755 16.5521 9.70432 16.5105 9.91346C16.4689 10.1226 16.3663 10.3147 16.2155 10.4655C16.0647 10.6163 15.8726 10.7189 15.6635 10.7605C15.4543 10.8021 15.2375 10.7808 15.0405 10.6992C14.8435 10.6176 14.6752 10.4794 14.5567 10.3021C14.4382 10.1248 14.375 9.91636 14.375 9.70312C14.375 9.41719 14.4886 9.14296 14.6908 8.94077C14.893 8.73859 15.1672 8.625 15.4531 8.625ZM8.625 16.5312H7.1875C6.80625 16.5312 6.44062 16.3798 6.17103 16.1102C5.90145 15.8406 5.75 15.475 5.75 15.0938C5.75 14.7125 5.90145 14.3469 6.17103 14.0773C6.44062 13.8077 6.80625 13.6562 7.1875 13.6562H8.625V16.5312ZM7.54688 10.7812C7.33364 10.7812 7.1252 10.718 6.9479 10.5996C6.7706 10.4811 6.63242 10.3127 6.55082 10.1157C6.46922 9.9187 6.44787 9.70193 6.48947 9.49279C6.53107 9.28366 6.63375 9.09155 6.78453 8.94077C6.9353 8.79 7.12741 8.68732 7.33654 8.64572C7.54568 8.60412 7.76245 8.62547 7.95946 8.70707C8.15646 8.78867 8.32484 8.92685 8.4433 9.10415C8.56177 9.28145 8.625 9.48989 8.625 9.70312C8.625 9.98906 8.51141 10.2633 8.30922 10.4655C8.10704 10.6677 7.83281 10.7812 7.54688 10.7812ZM12.9375 16.5312H10.0625V13.6562H12.9375V16.5312ZM15.8125 16.5312H14.375V13.6562H15.8125C16.1937 13.6562 16.5594 13.8077 16.829 14.0773C17.0985 14.3469 17.25 14.7125 17.25 15.0938C17.25 15.475 17.0985 15.8406 16.829 16.1102C16.5594 16.3798 16.1937 16.5312 15.8125 16.5312Z" fill="#E34646"/>
</svg>
