<svg width="21" height="19" viewBox="0 0 21 19" fill="none" xmlns="http://www.w3.org/2000/svg">
<g clip-path="url(#clip0_938_320)">
<path d="M2.33333 0C1.04635 0 0 1.06504 0 2.375V16.625C0 17.935 1.04635 19 2.33333 19H11.6667C12.9536 19 14 17.935 14 16.625V15.9088C13.9016 15.9496 13.8031 15.983 13.701 16.009L11.5099 16.5656C11.4005 16.5916 11.2911 16.6102 11.1818 16.6176C11.149 16.6213 11.1161 16.625 11.0833 16.625H8.75C8.5276 16.625 8.32708 16.4988 8.22865 16.2984L7.90781 15.6416C7.84583 15.5154 7.72188 15.4375 7.58698 15.4375C7.45208 15.4375 7.32448 15.5154 7.26615 15.6416L6.94531 16.2984C6.83958 16.5174 6.6099 16.6473 6.37292 16.625C6.13594 16.6027 5.93177 16.4357 5.86615 16.2057L5.25 14.1387L4.89271 15.3559C4.67031 16.1092 3.98854 16.625 3.21562 16.625H2.91667C2.59583 16.625 2.33333 16.3578 2.33333 16.0312C2.33333 15.7047 2.59583 15.4375 2.91667 15.4375H3.21562C3.47448 15.4375 3.70052 15.2668 3.77344 15.0145L4.31667 13.1775C4.44062 12.7582 4.81979 12.4688 5.25 12.4688C5.68021 12.4688 6.05937 12.7582 6.18333 13.1775L6.60625 14.61C6.87604 14.3799 7.21875 14.25 7.58333 14.25C8.16302 14.25 8.69167 14.584 8.95052 15.1109L9.11094 15.4375H9.43542C9.3224 15.1109 9.30052 14.7547 9.38437 14.4059L9.93125 12.1756C10.0333 11.7563 10.2448 11.3777 10.5437 11.0734L14 7.55547V5.9375H9.33333C8.68802 5.9375 8.16667 5.40684 8.16667 4.75V0H2.33333ZM9.33333 0V4.75H14L9.33333 0ZM20.0448 5.18418C19.476 4.60527 18.5536 4.60527 17.9813 5.18418L16.9094 6.2752L19.4979 8.90996L20.5698 7.81895C21.1385 7.24004 21.1385 6.30117 20.5698 5.71855L20.0448 5.18418ZM11.3714 11.9121C11.2219 12.0643 11.1161 12.2535 11.0651 12.465L10.5182 14.6953C10.4672 14.8994 10.5255 15.1109 10.6714 15.2594C10.8172 15.4078 11.025 15.4672 11.2255 15.4152L13.4167 14.8586C13.6208 14.8066 13.8104 14.699 13.9599 14.5469L18.6703 9.74863L16.0818 7.11387L11.3714 11.9121Z" fill="#E34646"/>
</g>
<defs>
<clipPath id="clip0_938_320">
<rect width="21" height="19" fill="white"/>
</clipPath>
</defs>
</svg>
