<svg width="36" height="36" viewBox="0 0 36 36" fill="none" xmlns="http://www.w3.org/2000/svg">
<g clip-path="url(#clip0_938_271)">
<path d="M18.0007 0.719971C13.4178 0.719971 9.02253 2.54054 5.7819 5.78117C2.54127 9.02179 0.720703 13.417 0.720703 18C0.720821 20.2692 1.1679 22.5162 2.03641 24.6127C2.90492 26.7091 4.17785 28.614 5.78253 30.2185C7.38721 31.823 9.29221 33.0958 11.3888 33.9641C13.4853 34.8323 15.7324 35.2792 18.0016 35.2791C20.2708 35.279 22.5178 34.8319 24.6143 33.9634C26.7108 33.0949 28.6156 31.8219 30.2201 30.2172C31.8247 28.6126 33.0974 26.7076 33.9657 24.611C34.834 22.5145 35.2808 20.2674 35.2807 17.9982C35.2807 8.45637 27.5425 0.719971 18.0007 0.719971ZM18.0007 31.6782C16.2042 31.6782 14.4253 31.3243 12.7656 30.6368C11.1059 29.9494 9.59779 28.9417 8.32748 27.6714C7.05718 26.4011 6.04951 24.893 5.36203 23.2333C4.67455 21.5735 4.3207 19.7947 4.3207 17.9982C4.3207 16.2017 4.67455 14.4228 5.36203 12.7631C6.04951 11.1033 7.05718 9.59525 8.32748 8.32495C9.59779 7.05464 11.1059 6.04698 12.7656 5.3595C14.4253 4.67201 16.2042 4.31817 18.0007 4.31817V18L30.2263 11.8872C31.1821 13.7831 31.6802 15.8767 31.6807 18C31.6802 21.6278 30.2387 25.1069 27.6733 27.672C25.1078 30.2371 21.6286 31.6782 18.0007 31.6782Z" fill="white"/>
</g>
<defs>
<clipPath id="clip0_938_271">
<rect width="36" height="36" fill="white"/>
</clipPath>
</defs>
</svg>
