<svg width="26" height="30" viewBox="0 0 26 30" fill="none" xmlns="http://www.w3.org/2000/svg">
<g clip-path="url(#clip0_938_1195)">
<path d="M13 15C17.1031 15 20.4286 11.6426 20.4286 7.5C20.4286 3.35742 17.1031 0 13 0C8.89688 0 5.57143 3.35742 5.57143 7.5C5.57143 11.6426 8.89688 15 13 15ZM18.5598 16.9102L15.7857 28.125L13.9286 20.1562L15.7857 16.875H10.2143L12.0714 20.1562L10.2143 28.125L7.44018 16.9102C3.30223 17.1094 0 20.5254 0 24.75V27.1875C0 28.7402 1.24777 30 2.78571 30H23.2143C24.7522 30 26 28.7402 26 27.1875V24.75C26 20.5254 22.6978 17.1094 18.5598 16.9102Z" fill="#0291D5"/>
</g>
<defs>
<clipPath id="clip0_938_1195">
<rect width="26" height="30" fill="white"/>
</clipPath>
</defs>
</svg>
