<svg width="46" height="44" viewBox="0 0 46 44" fill="none" xmlns="http://www.w3.org/2000/svg">
<path d="M8.165 7.81C5.75 10.142 5.75 13.871 5.75 21.34V22.66C5.75 30.118 5.75 33.847 8.165 36.19C10.603 38.5 14.5015 38.5 22.31 38.5H23.69C31.487 38.5 35.3855 38.5 37.835 36.19C40.25 33.858 40.25 30.129 40.25 22.66V21.34C40.25 13.882 40.25 10.153 37.835 7.81C35.397 5.5 31.4985 5.5 23.69 5.5H22.31C14.513 5.5 10.6145 5.5 8.165 7.81ZM11.569 15.543H15.525C15.6515 21.835 18.5495 24.497 20.8495 25.047V15.543H24.564V20.966C26.8295 20.735 29.2215 18.26 30.0265 15.532H33.7295C33.4277 16.9442 32.8246 18.2816 31.9579 19.4608C31.0912 20.6399 29.9796 21.6354 28.6925 22.385C30.1289 23.0686 31.3974 24.0358 32.4144 25.2228C33.4313 26.4097 34.1735 27.7895 34.592 29.271H30.5095C29.6355 26.664 27.4505 24.64 24.564 24.365V29.271H24.104C16.238 29.271 11.753 24.123 11.569 15.543Z" fill="#E34646"/>
</svg>
