<svg width="48" height="50" viewBox="0 0 48 50" fill="none" xmlns="http://www.w3.org/2000/svg">
<path d="M20 31.2498L30.38 24.9998L20 18.7498V31.2498ZM43.12 14.9373C43.38 15.9165 43.56 17.229 43.68 18.8957C43.82 20.5623 43.88 21.9998 43.88 23.2498L44 24.9998C44 29.5623 43.68 32.9165 43.12 35.0623C42.62 36.9373 41.46 38.1457 39.66 38.6665C38.72 38.9373 37 39.1248 34.36 39.2498C31.76 39.3957 29.38 39.4582 27.18 39.4582L24 39.5832C15.62 39.5832 10.4 39.2498 8.34 38.6665C6.54 38.1457 5.38 36.9373 4.88 35.0623C4.62 34.0832 4.44 32.7707 4.32 31.104C4.18 29.4373 4.12 27.9998 4.12 26.7498L4 24.9998C4 20.4373 4.32 17.0832 4.88 14.9373C5.38 13.0623 6.54 11.854 8.34 11.3332C9.28 11.0623 11 10.8748 13.64 10.7498C16.24 10.604 18.62 10.5415 20.82 10.5415L24 10.4165C32.38 10.4165 37.6 10.7498 39.66 11.3332C41.46 11.854 42.62 13.0623 43.12 14.9373Z" fill="#E34646"/>
</svg>
