<svg width="17" height="18" viewBox="0 0 17 18" fill="none" xmlns="http://www.w3.org/2000/svg">
<g clip-path="url(#clip0_938_342)">
<path d="M14.875 15.75L10.625 11.25M2.125 7.5C2.125 8.18944 2.25325 8.87213 2.50243 9.50909C2.75161 10.146 3.11684 10.7248 3.57726 11.2123C4.03769 11.6998 4.58429 12.0865 5.18586 12.3504C5.78743 12.6142 6.4322 12.75 7.08333 12.75C7.73447 12.75 8.37923 12.6142 8.98081 12.3504C9.58238 12.0865 10.129 11.6998 10.5894 11.2123C11.0498 10.7248 11.4151 10.146 11.6642 9.50909C11.9134 8.87213 12.0417 8.18944 12.0417 7.5C12.0417 6.81056 11.9134 6.12787 11.6642 5.49091C11.4151 4.85395 11.0498 4.2752 10.5894 3.78769C10.129 3.30018 9.58238 2.91347 8.98081 2.64963C8.37923 2.3858 7.73447 2.25 7.08333 2.25C6.4322 2.25 5.78743 2.3858 5.18586 2.64963C4.58429 2.91347 4.03769 3.30018 3.57726 3.78769C3.11684 4.2752 2.75161 4.85395 2.50243 5.49091C2.25325 6.12787 2.125 6.81056 2.125 7.5Z" stroke="#E34646" stroke-width="4" stroke-linecap="round" stroke-linejoin="round"/>
</g>
<defs>
<clipPath id="clip0_938_342">
<rect width="17" height="18" fill="white"/>
</clipPath>
</defs>
</svg>
